<?xml version="1.0" standalone="no"?>
<!DOCTYPE svg PUBLIC "-//W3C//DTD SVG 20010904//EN"
 "http://www.w3.org/TR/2001/REC-SVG-20010904/DTD/svg10.dtd">
<svg version="1.0" xmlns="http://www.w3.org/2000/svg"
 width="1920.000000pt" height="1920.000000pt" viewBox="0 0 1920.000000 1920.000000"
 preserveAspectRatio="xMidYMid meet">

<g transform="translate(0.000000,1920.000000) scale(0.100000,-0.100000)"
fill="#000000" stroke="none">
<path d="M5302 14795 c-466 -85 -825 -425 -943 -896 l-24 -94 0 -4205 0 -4205
24 -94 c111 -440 422 -758 858 -879 l98 -27 4175 -3 c3043 -2 4196 0 4254 8
496 71 894 452 992 953 13 67 17 179 21 616 3 293 2 549 -2 568 -9 51 -45 83
-92 83 -42 -1 -63 -13 -81 -47 -9 -16 -12 -170 -12 -558 0 -496 -1 -544 -20
-634 -74 -366 -318 -643 -668 -761 -160 -53 73 -50 -4404 -47 l-4143 2 -80 23
c-169 49 -312 131 -437 250 -160 153 -264 352 -297 572 -9 56 -11 1022 -9
3790 l3 3715 253 0 c138 0 2401 -1 5027 -3 l4775 -2 0 -1939 0 -1939 26 -31
c28 -33 61 -39 109 -21 59 23 56 -136 52 2428 -3 2157 -4 2354 -20 2429 -101
493 -476 863 -960 949 -117 20 -8361 20 -8475 -1z m8523 -193 c174 -51 334
-144 452 -264 110 -111 175 -208 228 -343 56 -142 65 -218 65 -567 l0 -318
-5030 0 -5030 0 0 309 c0 330 7 400 54 537 67 198 217 394 389 507 115 76 285
142 412 160 17 2 1909 4 4205 3 l4175 -1 80 -23z"/>
<path d="M5816 14374 c-187 -45 -343 -214 -377 -408 -51 -297 168 -573 471
-593 289 -19 540 215 540 504 0 335 -307 576 -634 497z m257 -197 c74 -34 128
-84 162 -154 26 -50 29 -69 29 -143 0 -68 -5 -94 -23 -131 -36 -75 -86 -125
-158 -161 -58 -28 -77 -33 -143 -32 -120 0 -216 55 -277 156 -112 188 -23 413
192 485 58 19 152 10 218 -20z"/>
<path d="M11730 12253 c-8 -3 -294 -134 -635 -291 -341 -156 -638 -293 -661
-303 -85 -39 -79 17 -82 -673 -2 -380 1 -659 8 -737 29 -344 162 -638 397
-878 51 -52 92 -95 90 -96 -1 -1 -59 -29 -130 -63 -418 -200 -744 -478 -990
-845 -189 -281 -312 -591 -378 -948 -22 -120 -23 -147 -27 -784 -2 -363 -1
-670 3 -682 14 -59 97 -84 146 -44 l24 19 6 654 c6 711 8 736 69 978 40 159
81 273 154 425 261 544 706 943 1286 1151 102 37 130 60 130 104 0 47 -9 58
-105 130 -264 199 -440 491 -485 806 -6 45 -10 168 -8 286 l3 208 45 -31 c390
-266 1260 -348 1911 -180 170 44 321 107 429 180 l45 31 3 -200 c2 -137 -2
-231 -12 -298 -45 -297 -207 -582 -432 -760 -44 -35 -95 -76 -115 -92 -42 -33
-51 -65 -33 -108 15 -36 20 -39 149 -87 450 -166 844 -487 1122 -912 90 -138
114 -154 182 -118 41 21 55 66 35 113 -43 104 -215 331 -374 496 -221 228
-461 398 -750 530 l-86 40 91 91 c159 160 272 345 339 554 68 213 69 224 74
957 4 701 2 730 -42 759 -40 26 -1330 616 -1356 620 -14 2 -32 1 -40 -2z m366
-344 c181 -83 453 -208 604 -278 l275 -127 3 -207 2 -207 -1220 0 -1220 0 0
208 0 207 603 277 c331 152 607 277 613 277 6 1 159 -67 340 -150z m844 -1018
c0 -5 -21 -27 -46 -49 -318 -272 -1158 -371 -1800 -212 -215 53 -379 129 -476
220 l-53 49 1188 1 c718 0 1187 -4 1187 -9z"/>
<path d="M8850 10583 c-119 -7 -301 -35 -418 -64 -449 -110 -819 -322 -1142
-656 -85 -87 -193 -221 -405 -503 -158 -212 -289 -387 -291 -389 -2 -2 -178
-67 -391 -145 -453 -166 -459 -169 -566 -239 -244 -160 -411 -407 -474 -702
-11 -52 -16 -166 -20 -453 -3 -210 -2 -399 2 -418 3 -20 17 -47 30 -60 l24
-24 345 0 345 0 5 -32 c21 -128 30 -168 48 -226 110 -360 413 -649 786 -750
88 -23 114 -26 277 -26 138 0 196 4 250 17 450 112 779 462 854 907 l18 105
407 3 c452 3 447 2 465 69 11 40 3 70 -29 98 -22 19 -36 20 -433 20 l-410 0
-23 105 c-84 396 -347 703 -719 836 -205 73 -453 84 -660 30 -422 -111 -746
-467 -819 -898 l-12 -73 -283 -3 -283 -2 4 367 c4 339 6 373 26 438 70 231
212 419 409 538 58 35 186 87 489 197 l409 151 1435 -1 c789 -1 1445 -1 1458
-1 13 1 34 12 47 26 36 35 34 88 -4 126 l-29 29 -251 0 -251 0 0 710 0 709
466 3 466 3 24 28 c41 48 29 113 -26 142 -25 13 -104 15 -562 13 -293 -1 -558
-3 -588 -5z m40 -893 l0 -710 -1030 0 -1030 0 137 183 c314 421 375 496 479
599 167 164 277 248 454 350 284 163 663 278 948 287 l42 1 0 -710z m-1727
-1765 c298 -52 548 -239 686 -512 102 -203 120 -485 45 -705 -102 -300 -344
-526 -654 -609 -71 -19 -109 -23 -235 -23 -174 0 -255 18 -393 84 -104 50
-161 88 -241 164 -198 189 -296 417 -294 686 1 185 47 344 143 494 206 319
576 485 943 421z"/>
<path d="M6890 7554 c-257 -55 -444 -288 -443 -551 2 -218 121 -408 314 -502
140 -67 274 -77 420 -32 220 69 388 293 389 519 0 68 -29 102 -88 102 -65 0
-84 -27 -97 -139 -14 -121 -93 -229 -208 -286 -196 -96 -409 -22 -514 177 -25
48 -28 62 -28 158 0 99 2 109 33 172 59 119 160 190 307 213 65 11 83 18 102
40 26 29 29 52 11 90 -24 54 -80 65 -198 39z"/>
<path d="M16172 10010 c-40 -11 -97 -32 -125 -47 -39 -21 -276 -251 -944 -913
-490 -487 -1128 -1125 -1418 -1417 -290 -293 -532 -533 -538 -533 -7 0 -291
278 -632 618 -671 669 -664 663 -806 697 -189 44 -373 -8 -510 -145 -181 -182
-209 -467 -66 -681 20 -30 406 -423 869 -885 764 -762 838 -833 898 -861 179
-86 380 -76 535 26 66 43 524 497 2256 2236 1010 1014 1067 1074 1098 1139 18
39 40 108 49 154 41 226 -73 459 -279 567 -123 64 -254 80 -387 45z m258 -185
c155 -54 260 -232 231 -391 -24 -126 63 -34 -1678 -1776 -1361 -1361 -1635
-1631 -1682 -1655 -50 -25 -66 -28 -156 -28 -85 0 -108 4 -150 24 -40 19 -217
191 -878 850 -942 940 -892 882 -892 1041 0 71 5 95 27 142 35 76 99 143 173
181 55 29 68 31 155 31 76 0 105 -5 145 -23 41 -18 168 -140 710 -681 461
-460 668 -659 685 -662 14 -2 36 -2 50 0 17 3 466 445 1480 1457 1007 1005
1468 1460 1497 1474 87 43 189 49 283 16z"/>
</g>
</svg>
