<svg width="50" height="50" viewBox="0 0 50 50" fill="none" xmlns="http://www.w3.org/2000/svg">
<circle cx="25" cy="25" r="25" fill="#B1BECC"/>
<g clip-path="url(#clip0)">
<path d="M20.0909 31.9311V24.7562L17.9341 22.7206L16 21.5909V30.6649C16 31.3655 16.5502 31.9311 17.2273 31.9311H20.0909Z" fill="white"/>
<path d="M29.9092 31.9311H32.7728C33.4519 31.9311 34.0001 31.3634 34.0001 30.665V21.5911L31.8094 22.8849L29.9092 24.7563V31.9311Z" fill="white"/>
<path d="M20.0913 24.7563L19.7979 21.9529L20.0913 19.2698L25.0004 23.0682L29.9095 19.2698L30.2379 21.8081L29.9095 24.7563L25.0004 28.5547L20.0913 24.7563Z" fill="white"/>
<path d="M29.9092 19.2697V24.7562L34.0001 21.5909V19.9027C34.0001 18.337 32.2676 17.4444 31.0547 18.3834L29.9092 19.2697Z" fill="white"/>
<path d="M16 21.5909L17.8815 23.0467L20.0909 24.7562V19.2696L18.9454 18.3833C17.7304 17.4442 16 18.3369 16 19.9026V21.5908V21.5909Z" fill="white"/>
</g>
<defs>
<clipPath id="clip0">
<rect width="18" height="14" fill="white" transform="translate(16 18)"/>
</clipPath>
</defs>
</svg>
