<svg width="50" height="50" viewBox="0 0 50 50" fill="none" xmlns="http://www.w3.org/2000/svg">
<circle cx="25" cy="25" r="25" fill="#BE1326"/>
<path d="M32.5066 16.1436C30.9109 14.5479 28.617 13.75 26.1237 13.75C22.3338 13.75 20.0399 15.3458 18.7434 16.6423C17.1476 18.238 16.25 20.3325 16.25 22.5266C16.25 25.2194 17.3471 27.2141 19.242 28.012C19.3418 28.1117 19.5412 28.1117 19.641 28.1117C20.0399 28.1117 20.3391 27.8125 20.4388 27.4136C20.5386 27.2141 20.6383 26.6157 20.738 26.3165C20.8378 25.8178 20.738 25.6184 20.4388 25.2194C19.9402 24.621 19.641 23.8232 19.641 22.8258C19.641 19.9335 21.8351 16.8418 25.8245 16.8418C29.016 16.8418 31.0106 18.637 31.0106 21.5293C31.0106 23.3245 30.6117 25.02 29.9136 26.3165C29.4149 27.2141 28.5173 28.2114 27.2208 28.2114C26.6223 28.2114 26.1237 28.012 25.8245 27.5133C25.5253 27.1144 25.4255 26.6157 25.5253 26.117C25.625 25.5186 25.8245 24.9202 26.0239 24.3218C26.3231 23.2247 26.7221 22.1277 26.7221 21.3298C26.7221 19.9335 25.8245 18.9362 24.5279 18.9362C22.8324 18.9362 21.5359 20.6317 21.5359 22.7261C21.5359 23.8231 21.8351 24.5213 21.9349 24.8205C21.7354 25.7181 20.4388 31.004 20.2394 31.9016C20.1396 32.5 19.242 37.0878 20.6383 37.387C22.1343 37.7859 23.5306 33.2979 23.6303 32.7992C23.7301 32.4003 24.129 30.8045 24.3285 29.9069C25.0266 30.6051 26.2234 31.1037 27.4202 31.1037C29.6144 31.1037 31.5093 30.1064 32.9056 28.3112C34.2022 26.6157 35 24.2221 35 21.5293C34.9003 19.734 34.1024 17.6396 32.5066 16.1436Z" fill="white"/>
</svg>
