<svg width="50" height="50" viewBox="0 0 50 50" fill="none" xmlns="http://www.w3.org/2000/svg">
<circle cx="25" cy="25" r="25" fill="#00A9E7"/>
<path d="M37.8977 26.3352C37.983 25.6534 38.0682 25.0568 38.0682 24.375C38.0682 17.5568 32.5284 11.9318 25.625 11.9318C24.9432 11.9318 24.3466 12.017 23.6648 12.1023C22.5568 11.5057 21.3636 11.25 20.1705 11.25C15.9091 11.25 12.5 14.6591 12.5 18.9205C12.5 20.1136 12.7557 21.3068 13.3523 22.4148C13.267 23.0966 13.1818 23.6932 13.1818 24.375C13.1818 31.1932 18.7216 36.8182 25.625 36.8182C26.3068 36.8182 26.9034 36.733 27.5852 36.6477C28.6932 37.1591 29.8864 37.5 31.0795 37.5C35.3409 37.5 38.75 34.0909 38.75 29.8295C38.75 28.6364 38.4091 27.4432 37.8977 26.3352ZM30.8239 28.892C30.5682 29.4034 30.2273 29.8295 29.7159 30.1705C29.2045 30.5114 28.6932 30.767 28.0114 30.9375C27.3295 31.108 26.5625 31.1932 25.7102 31.1932C23.9205 31.1932 22.4716 30.767 21.4489 30C20.8523 29.4886 20.3409 28.892 20.0852 28.125C19.7443 27.4432 20.3409 26.5909 21.1932 26.5909H21.4489C21.9602 26.5909 22.4716 26.9318 22.642 27.358C22.8125 27.7841 23.0682 28.125 23.4091 28.3807C23.9205 28.8068 24.6875 28.9773 25.625 28.9773C26.4773 28.9773 27.1591 28.8068 27.6705 28.5511C28.1818 28.2955 28.4375 27.7841 28.4375 27.2727C28.4375 27.017 28.3523 26.8466 28.267 26.6761C28.1818 26.5057 27.9261 26.3352 27.7557 26.25C27.5 26.0795 27.2443 25.9943 26.8182 25.9091C26.4773 25.8239 26.0511 25.6534 25.5398 25.5682L25.0284 25.3977C24.4318 25.2273 23.75 25.0568 23.2386 24.8864C22.642 24.7159 22.1307 24.4602 21.7045 24.2045C21.2784 23.9489 20.9375 23.608 20.6818 23.0966C20.4261 22.6705 20.3409 22.0739 20.3409 21.392C20.3409 20.7102 20.5114 20.1136 20.767 19.6023C21.0227 19.0909 21.4489 18.6648 21.875 18.4091C22.3864 18.0682 22.8977 17.8125 23.5795 17.7273C24.1761 17.5568 24.858 17.4716 25.625 17.4716C26.4773 17.4716 27.1591 17.5568 27.8409 17.7273C28.5227 17.8977 29.0341 18.1534 29.5455 18.5795C30.0568 18.9205 30.3977 19.3466 30.6534 19.9432C31.0795 20.7102 30.483 21.733 29.5455 21.733H29.2898C28.7784 21.733 28.3523 21.4773 28.0966 21.0511C27.9261 20.7955 27.7557 20.5398 27.5 20.2841C27.0739 19.9432 26.392 19.7727 25.625 19.7727C24.858 19.7727 24.2614 19.9432 23.8352 20.1989C23.4091 20.4545 23.2386 20.8807 23.2386 21.3068C23.2386 21.5625 23.3239 21.733 23.4091 21.9034C23.4943 22.0739 23.6648 22.2443 23.9205 22.3295C24.1761 22.4148 24.4318 22.5852 24.7727 22.6705C25.1136 22.7557 25.5398 22.8409 26.0511 23.0114C26.5625 23.0966 26.9886 23.267 27.5 23.3523C27.9261 23.4375 28.3523 23.608 28.7784 23.6932C29.2045 23.8636 29.5455 24.0341 29.8864 24.2045C30.2273 24.375 30.483 24.6307 30.7386 24.8864C30.9943 25.142 31.1648 25.483 31.25 25.8239C31.4205 26.1648 31.4205 26.6761 31.4205 27.1875C31.25 27.7841 31.0795 28.3807 30.8239 28.892Z" fill="white"/>
</svg>
